<?xml version="1.0" encoding="UTF-8" standalone="no"?>
<!-- Created with Inkscape (http://www.inkscape.org/) -->

<svg
   xmlns:dc="http://purl.org/dc/elements/1.1/"
   xmlns:cc="http://creativecommons.org/ns#"
   xmlns:rdf="http://www.w3.org/1999/02/22-rdf-syntax-ns#"
   xmlns:svg="http://www.w3.org/2000/svg"
   xmlns="http://www.w3.org/2000/svg"
   xmlns:xlink="http://www.w3.org/1999/xlink"
   xmlns:sodipodi="http://sodipodi.sourceforge.net/DTD/sodipodi-0.dtd"
   xmlns:inkscape="http://www.inkscape.org/namespaces/inkscape"
   id="svg3169"
   version="1.1"
   inkscape:version="0.48.3.1 r9886"
   width="204.55725"
   height="56.05069"
   xml:space="preserve"
   sodipodi:docname="Fig5key.eps"><metadata
     id="metadata3175"><rdf:RDF><cc:Work
         rdf:about=""><dc:format>image/svg+xml</dc:format><dc:type
           rdf:resource="http://purl.org/dc/dcmitype/StillImage" /><dc:title></dc:title></cc:Work></rdf:RDF></metadata><defs
     id="defs3173"><linearGradient
       id="linearGradient4441"><stop
         style="stop-color:#000000;stop-opacity:1;"
         offset="0"
         id="stop4443" /><stop
         style="stop-color:#000000;stop-opacity:1;"
         offset="1"
         id="stop4445" /></linearGradient><marker
       inkscape:stockid="Arrow2Lstart"
       orient="auto"
       refY="0"
       refX="0"
       id="Arrow2Lstart"
       style="overflow:visible"><path
         id="path5850"
         style="fill-rule:evenodd;stroke-width:0.625;stroke-linejoin:round"
         d="M 8.7185878,4.0337352 -2.2072895,0.01601326 8.7185884,-4.0017078 c -1.7454984,2.3720609 -1.7354408,5.6174519 -6e-7,8.035443 z"
         transform="matrix(1.1,0,0,1.1,1.1,0)"
         inkscape:connector-curvature="0" /></marker><linearGradient
       id="linearGradient4346"><stop
         id="stop4348"
         offset="0"
         style="stop-color:#000000;stop-opacity:1;" /><stop
         id="stop4350"
         offset="1"
         style="stop-color:#000000;stop-opacity:0;" /></linearGradient><linearGradient
       id="linearGradient4328"><stop
         style="stop-color:#000000;stop-opacity:1;"
         offset="0"
         id="stop4330" /><stop
         id="stop4358"
         offset="0.5"
         style="stop-color:#00baff;stop-opacity:0.55686277;" /><stop
         style="stop-color:#68ffff;stop-opacity:0.32941177;"
         offset="0.75"
         id="stop4360" /><stop
         style="stop-color:#ffffff;stop-opacity:0;"
         offset="1"
         id="stop4332" /></linearGradient><linearGradient
       id="linearGradient4312"><stop
         style="stop-color:#000000;stop-opacity:1;"
         offset="0"
         id="stop4314" /><stop
         style="stop-color:#000000;stop-opacity:0;"
         offset="1"
         id="stop4316" /></linearGradient><pattern
       inkscape:collect="always"
       xlink:href="#Strips1_1white"
       id="pattern11229"
       patternTransform="matrix(3.0211001,0,0,10.002,127.83866,-1.5415983)" /><pattern
       inkscape:stockid="Stripes 1:1 white"
       id="Strips1_1white"
       patternTransform="translate(0,0) scale(10,10)"
       height="1"
       width="2"
       patternUnits="userSpaceOnUse"
       inkscape:collect="always"><rect
         id="rect10461"
         height="2"
         width="1"
         y="-0.5"
         x="0"
         style="fill:white;stroke:none" /></pattern><marker
       inkscape:stockid="TriangleInS"
       orient="auto"
       refY="0"
       refX="0"
       id="TriangleInS"
       style="overflow:visible"><path
         id="path4510"
         d="m 5.77,0 -8.65,5 0,-10 8.65,5 z"
         style="fill-rule:evenodd;stroke:#000000;stroke-width:1pt"
         transform="scale(-0.2,-0.2)"
         inkscape:connector-curvature="0" /></marker><marker
       style="overflow:visible"
       inkscape:stockid="InfiniteLineStart"
       id="InfiniteLineStart"
       refX="0"
       refY="0"
       orient="auto"><g
         id="g4615"
         style="fill:#000000"
         transform="translate(-13,0)"><circle
           d="M 3.8,0 C 3.8,0.44182781 3.4418278,0.80000001 3,0.80000001 2.5581722,0.80000001 2.2,0.44182781 2.2,0 c 0,-0.44182781 0.3581722,-0.80000001 0.8,-0.80000001 0.4418278,0 0.8,0.3581722 0.8,0.80000001 z"
           id="circle4617"
           r="0.80000001"
           cy="0"
           cx="3"
           sodipodi:cx="3"
           sodipodi:cy="0"
           sodipodi:rx="0.80000001"
           sodipodi:ry="0.80000001" /><circle
           d="M 7.3,0 C 7.3,0.44182781 6.9418278,0.80000001 6.5,0.80000001 6.0581722,0.80000001 5.7,0.44182781 5.7,0 c 0,-0.44182781 0.3581722,-0.80000001 0.8,-0.80000001 0.4418278,0 0.8,0.3581722 0.8,0.80000001 z"
           id="circle4619"
           r="0.80000001"
           cy="0"
           cx="6.5"
           sodipodi:cx="6.5"
           sodipodi:cy="0"
           sodipodi:rx="0.80000001"
           sodipodi:ry="0.80000001" /><circle
           d="M 10.8,0 C 10.8,0.44182781 10.441828,0.80000001 10,0.80000001 9.5581722,0.80000001 9.2,0.44182781 9.2,0 c 0,-0.44182781 0.3581722,-0.80000001 0.8,-0.80000001 0.441828,0 0.8,0.3581722 0.8,0.80000001 z"
           id="circle4621"
           r="0.80000001"
           cy="0"
           cx="10"
           sodipodi:cx="10"
           sodipodi:cy="0"
           sodipodi:rx="0.80000001"
           sodipodi:ry="0.80000001" /></g></marker><marker
       inkscape:stockid="DiamondSend"
       orient="auto"
       refY="0"
       refX="0"
       id="DiamondSend"
       style="overflow:visible"><path
         id="path4474"
         d="M 0,-7.0710768 -7.0710894,0 0,7.0710589 7.0710462,0 0,-7.0710768 z"
         style="fill-rule:evenodd;stroke:#000000;stroke-width:1pt"
         transform="matrix(0.2,0,0,0.2,-1.2,0)"
         inkscape:connector-curvature="0" /></marker><marker
       inkscape:stockid="Arrow2Sstart"
       orient="auto"
       refY="0"
       refX="0"
       id="Arrow2Sstart"
       style="overflow:visible"><path
         id="path4401"
         style="fill-rule:evenodd;stroke-width:0.625;stroke-linejoin:round"
         d="M 8.7185878,4.0337352 -2.2072895,0.01601326 8.7185884,-4.0017078 c -1.7454984,2.3720609 -1.7354408,5.6174519 -6e-7,8.035443 z"
         transform="matrix(0.3,0,0,0.3,-0.69,0)"
         inkscape:connector-curvature="0" /></marker><marker
       inkscape:stockid="Arrow2Mstart"
       orient="auto"
       refY="0"
       refX="0"
       id="Arrow2Mstart"
       style="overflow:visible"><path
         id="path4395"
         style="fill-rule:evenodd;stroke-width:0.625;stroke-linejoin:round"
         d="M 8.7185878,4.0337352 -2.2072895,0.01601326 8.7185884,-4.0017078 c -1.7454984,2.3720609 -1.7354408,5.6174519 -6e-7,8.035443 z"
         transform="scale(0.6,0.6)"
         inkscape:connector-curvature="0" /></marker><marker
       inkscape:stockid="Arrow2Mend"
       orient="auto"
       refY="0"
       refX="0"
       id="Arrow2Mend"
       style="overflow:visible"><path
         id="path4398"
         style="fill-rule:evenodd;stroke-width:0.625;stroke-linejoin:round"
         d="M 8.7185878,4.0337352 -2.2072895,0.01601326 8.7185884,-4.0017078 c -1.7454984,2.3720609 -1.7354408,5.6174519 -6e-7,8.035443 z"
         transform="scale(-0.6,-0.6)"
         inkscape:connector-curvature="0" /></marker><marker
       inkscape:stockid="Arrow1Send"
       orient="auto"
       refY="0"
       refX="0"
       id="Arrow1Send"
       style="overflow:visible"><path
         id="path4386"
         d="M 0,0 5,-5 -12.5,0 5,5 0,0 z"
         style="fill-rule:evenodd;stroke:#000000;stroke-width:1pt"
         transform="matrix(-0.2,0,0,-0.2,-1.2,0)"
         inkscape:connector-curvature="0" /></marker><marker
       inkscape:stockid="StopL"
       orient="auto"
       refY="0"
       refX="0"
       id="StopL"
       style="overflow:visible"><path
         id="path4540"
         d="M 0,5.65 0,-5.65"
         style="fill:none;stroke:#000000;stroke-width:1pt"
         transform="scale(0.8,0.8)"
         inkscape:connector-curvature="0" /></marker><marker
       style="overflow:visible"
       id="DistanceEnd"
       refX="0"
       refY="0"
       orient="auto"
       inkscape:stockid="DistanceEnd"><g
         id="g2301"><path
           style="fill:none;stroke:#ffffff;stroke-width:1.14999998;stroke-linecap:square"
           d="M 0,0 -2,0"
           id="path2316"
           inkscape:connector-curvature="0" /><path
           style="fill:#000000;fill-rule:evenodd;stroke:none"
           d="M 0,0 -13,4 -9,0 -13,-4 0,0 z"
           id="path2312"
           inkscape:connector-curvature="0" /><path
           style="fill:none;stroke:#000000;stroke-width:1;stroke-linecap:square"
           d="M 0,-4 0,40"
           id="path2314"
           inkscape:connector-curvature="0" /></g></marker><marker
       style="overflow:visible"
       id="DistanceStart"
       refX="0"
       refY="0"
       orient="auto"
       inkscape:stockid="DistanceStart"><g
         id="g2300"><path
           style="fill:none;stroke:#ffffff;stroke-width:1.14999998;stroke-linecap:square"
           d="M 0,0 2,0"
           id="path2306"
           inkscape:connector-curvature="0" /><path
           style="fill:#000000;fill-rule:evenodd;stroke:none"
           d="M 0,0 13,4 9,0 13,-4 0,0 z"
           id="path2302"
           inkscape:connector-curvature="0" /><path
           style="fill:none;stroke:#000000;stroke-width:1;stroke-linecap:square"
           d="M 0,-4 0,40"
           id="path2304"
           inkscape:connector-curvature="0" /></g></marker><linearGradient
       id="linearGradient3931"><stop
         style="stop-color:#000000;stop-opacity:0.24705882;"
         offset="0"
         id="stop4308" /><stop
         style="stop-color:#000000;stop-opacity:0;"
         offset="1"
         id="stop3935" /></linearGradient><marker
       inkscape:stockid="Arrow1Mstart"
       orient="auto"
       refY="0"
       refX="0"
       id="Arrow1Mstart"
       style="overflow:visible"><path
         id="path4792"
         d="M 0,0 5,-5 -12.5,0 5,5 0,0 z"
         style="fill-rule:evenodd;stroke:#000000;stroke-width:1pt"
         transform="matrix(0.4,0,0,0.4,4,0)"
         inkscape:connector-curvature="0" /></marker><marker
       inkscape:stockid="Arrow1Lstart"
       orient="auto"
       refY="0"
       refX="0"
       id="Arrow1Lstart"
       style="overflow:visible"><path
         id="path4786"
         d="M 0,0 5,-5 -12.5,0 5,5 0,0 z"
         style="fill-rule:evenodd;stroke:#000000;stroke-width:1pt"
         transform="matrix(0.8,0,0,0.8,10,0)"
         inkscape:connector-curvature="0" /></marker><marker
       inkscape:stockid="Arrow1Mend"
       orient="auto"
       refY="0"
       refX="0"
       id="Arrow1Mend"
       style="overflow:visible"><path
         id="path4795"
         d="M 0,0 5,-5 -12.5,0 5,5 0,0 z"
         style="fill-rule:evenodd;stroke:#000000;stroke-width:1pt"
         transform="matrix(-0.4,0,0,-0.4,-4,0)"
         inkscape:connector-curvature="0" /></marker><marker
       inkscape:stockid="Arrow2Lend"
       orient="auto"
       refY="0"
       refX="0"
       id="Arrow2Lend"
       style="overflow:visible"><path
         id="path4807"
         style="fill-rule:evenodd;stroke-width:0.625;stroke-linejoin:round"
         d="M 8.7185878,4.0337352 -2.2072895,0.01601326 8.7185884,-4.0017078 c -1.7454984,2.3720609 -1.7354408,5.6174519 -6e-7,8.035443 z"
         transform="matrix(-1.1,0,0,-1.1,-1.1,0)"
         inkscape:connector-curvature="0" /></marker><clipPath
       clipPathUnits="userSpaceOnUse"
       id="clipPath3185"><path
         d="m 5.59766,4.39844 4394.40004,0 0,3005.59996 -4394.40004,0 0,-3005.59996 z"
         id="path3187"
         inkscape:connector-curvature="0" /></clipPath><clipPath
       clipPathUnits="userSpaceOnUse"
       id="clipPath3039"><path
         inkscape:connector-curvature="0"
         d="m 3.59766,0 3626.40004,0 0,2039.6 -3626.40004,0 0,-2039.6 z"
         id="path3041" /></clipPath><marker
       inkscape:stockid="Arrow1Mstart"
       orient="auto"
       refY="0"
       refX="0"
       id="Arrow1Mstart-7"
       style="overflow:visible"><path
         inkscape:connector-curvature="0"
         id="path4792-1"
         d="M 0,0 5,-5 -12.5,0 5,5 0,0 z"
         style="fill-rule:evenodd;stroke:#000000;stroke-width:1pt"
         transform="matrix(0.4,0,0,0.4,4,0)" /></marker><pattern
       inkscape:collect="always"
       xlink:href="#Strips1_1white-4"
       id="pattern11229-6"
       patternTransform="matrix(3.0211001,0,0,10.002,127.83866,-1.5415983)" /><pattern
       inkscape:stockid="Stripes 1:1 white"
       id="Strips1_1white-4"
       patternTransform="translate(0,0) scale(10,10)"
       height="1"
       width="2"
       patternUnits="userSpaceOnUse"
       inkscape:collect="always"><rect
         id="rect10461-8"
         height="2"
         width="1"
         y="-0.5"
         x="0"
         style="fill:white;stroke:none" /></pattern><pattern
       inkscape:collect="always"
       xlink:href="#Strips1_1white-4-1"
       id="pattern11229-6-0"
       patternTransform="matrix(3.0211001,0,0,10.002,127.83866,-1.5415983)" /><pattern
       inkscape:stockid="Stripes 1:1 white"
       id="Strips1_1white-4-1"
       patternTransform="translate(0,0) scale(10,10)"
       height="1"
       width="2"
       patternUnits="userSpaceOnUse"
       inkscape:collect="always"><rect
         id="rect10461-8-3"
         height="2"
         width="1"
         y="-0.5"
         x="0"
         style="fill:white;stroke:none" /></pattern><marker
       inkscape:stockid="StopL"
       orient="auto"
       refY="0"
       refX="0"
       id="StopL-1"
       style="overflow:visible"><path
         id="path4540-8"
         d="M 0,5.65 0,-5.65"
         style="fill:none;stroke:#000000;stroke-width:1pt"
         transform="scale(0.8,0.8)"
         inkscape:connector-curvature="0" /></marker><marker
       inkscape:stockid="Arrow2Lend"
       orient="auto"
       refY="0"
       refX="0"
       id="Arrow2Lend-6"
       style="overflow:visible"><path
         id="path4807-1"
         style="fill-rule:evenodd;stroke-width:0.625;stroke-linejoin:round"
         d="M 8.7185878,4.0337352 -2.2072895,0.01601326 8.7185884,-4.0017078 c -1.7454984,2.3720609 -1.7354408,5.6174519 -6e-7,8.035443 z"
         transform="matrix(-1.1,0,0,-1.1,-1.1,0)"
         inkscape:connector-curvature="0" /></marker><marker
       inkscape:stockid="Arrow2Mstart"
       orient="auto"
       refY="0"
       refX="0"
       id="Arrow2Mstart-3"
       style="overflow:visible"><path
         id="path4395-3"
         style="fill-rule:evenodd;stroke-width:0.625;stroke-linejoin:round"
         d="M 8.7185878,4.0337352 -2.2072895,0.01601326 8.7185884,-4.0017078 c -1.7454984,2.3720609 -1.7354408,5.6174519 -6e-7,8.035443 z"
         transform="scale(0.6,0.6)"
         inkscape:connector-curvature="0" /></marker><marker
       inkscape:stockid="Arrow2Mend"
       orient="auto"
       refY="0"
       refX="0"
       id="Arrow2Mend-9"
       style="overflow:visible"><path
         id="path4398-0"
         style="fill-rule:evenodd;stroke-width:0.625;stroke-linejoin:round"
         d="M 8.7185878,4.0337352 -2.2072895,0.01601326 8.7185884,-4.0017078 c -1.7454984,2.3720609 -1.7354408,5.6174519 -6e-7,8.035443 z"
         transform="scale(-0.6,-0.6)"
         inkscape:connector-curvature="0" /></marker><marker
       inkscape:stockid="Arrow1Mstart"
       orient="auto"
       refY="0"
       refX="0"
       id="Arrow1Mstart-6"
       style="overflow:visible"><path
         id="path4792-9"
         d="M 0,0 5,-5 -12.5,0 5,5 0,0 z"
         style="fill-rule:evenodd;stroke:#000000;stroke-width:1pt"
         transform="matrix(0.4,0,0,0.4,4,0)"
         inkscape:connector-curvature="0" /></marker><marker
       inkscape:stockid="Arrow1Mstart"
       orient="auto"
       refY="0"
       refX="0"
       id="marker3175"
       style="overflow:visible"><path
         id="path3177"
         d="M 0,0 5,-5 -12.5,0 5,5 0,0 z"
         style="fill-rule:evenodd;stroke:#000000;stroke-width:1pt"
         transform="matrix(0.4,0,0,0.4,4,0)"
         inkscape:connector-curvature="0" /></marker><radialGradient
       inkscape:collect="always"
       xlink:href="#linearGradient4328-0"
       id="radialGradient4344-9"
       cx="61.988041"
       cy="-383.52039"
       fx="61.988041"
       fy="-383.52039"
       r="31.999998"
       gradientTransform="translate(0,2.2859597e-5)"
       gradientUnits="userSpaceOnUse" /><linearGradient
       id="linearGradient4328-0"><stop
         style="stop-color:#000000;stop-opacity:1;"
         offset="0"
         id="stop4330-0" /><stop
         id="stop4358-5"
         offset="0.5"
         style="stop-color:#00baff;stop-opacity:0.55686277;" /><stop
         style="stop-color:#68ffff;stop-opacity:0.32941177;"
         offset="0.75"
         id="stop4360-3" /><stop
         style="stop-color:#ffffff;stop-opacity:0;"
         offset="1"
         id="stop4332-5" /></linearGradient><radialGradient
       inkscape:collect="always"
       xlink:href="#linearGradient4328-3"
       id="radialGradient4344-5"
       cx="61.988041"
       cy="-383.52039"
       fx="61.988041"
       fy="-383.52039"
       r="31.999998"
       gradientTransform="translate(2.7005371e-7,-0.71478851)"
       gradientUnits="userSpaceOnUse" /><linearGradient
       id="linearGradient4328-3"><stop
         style="stop-color:#000000;stop-opacity:1;"
         offset="0"
         id="stop4330-7" /><stop
         id="stop4358-0"
         offset="0.5"
         style="stop-color:#00baff;stop-opacity:0.55686277;" /><stop
         style="stop-color:#68ffff;stop-opacity:0.32941177;"
         offset="0.75"
         id="stop4360-0" /><stop
         style="stop-color:#ffffff;stop-opacity:0;"
         offset="1"
         id="stop4332-6" /></linearGradient><linearGradient
       id="linearGradient4328-0-5"><stop
         style="stop-color:#000000;stop-opacity:1;"
         offset="0"
         id="stop4330-0-1" /><stop
         id="stop4358-5-0"
         offset="0.5"
         style="stop-color:#00baff;stop-opacity:0.55686277;" /><stop
         style="stop-color:#68ffff;stop-opacity:0.32941177;"
         offset="0.75"
         id="stop4360-3-7" /><stop
         style="stop-color:#ffffff;stop-opacity:0;"
         offset="1"
         id="stop4332-5-9" /></linearGradient><linearGradient
       id="linearGradient4328-3-4"><stop
         style="stop-color:#000000;stop-opacity:1;"
         offset="0"
         id="stop4330-7-2" /><stop
         id="stop4358-0-4"
         offset="0.5"
         style="stop-color:#00baff;stop-opacity:0.55686277;" /><stop
         style="stop-color:#68ffff;stop-opacity:0.32941177;"
         offset="0.75"
         id="stop4360-0-1" /><stop
         style="stop-color:#ffffff;stop-opacity:0;"
         offset="1"
         id="stop4332-6-8" /></linearGradient><marker
       inkscape:stockid="Arrow1Mend"
       orient="auto"
       refY="0"
       refX="0"
       id="Arrow1Mend-8"
       style="overflow:visible"><path
         id="path4795-9"
         d="M 0,0 5,-5 -12.5,0 5,5 0,0 z"
         style="fill-rule:evenodd;stroke:#000000;stroke-width:1pt"
         transform="matrix(-0.4,0,0,-0.4,-4,0)"
         inkscape:connector-curvature="0" /></marker><linearGradient
       id="linearGradient4328-0-5-7"><stop
         style="stop-color:#000000;stop-opacity:1;"
         offset="0"
         id="stop4330-0-1-7" /><stop
         id="stop4358-5-0-8"
         offset="0.5"
         style="stop-color:#00baff;stop-opacity:0.55686277;" /><stop
         style="stop-color:#68ffff;stop-opacity:0.32941177;"
         offset="0.75"
         id="stop4360-3-7-5" /><stop
         style="stop-color:#ffffff;stop-opacity:0;"
         offset="1"
         id="stop4332-5-9-7" /></linearGradient><marker
       inkscape:stockid="Arrow1Mend"
       orient="auto"
       refY="0"
       refX="0"
       id="Arrow1Mend-7"
       style="overflow:visible"><path
         id="path4795-5"
         d="M 0,0 5,-5 -12.5,0 5,5 0,0 z"
         style="fill-rule:evenodd;stroke:#000000;stroke-width:1pt"
         transform="matrix(-0.4,0,0,-0.4,-4,0)"
         inkscape:connector-curvature="0" /></marker><linearGradient
       inkscape:collect="always"
       xlink:href="#linearGradient4328-3-4-4"
       id="linearGradient5448-4"
       gradientUnits="userSpaceOnUse"
       x1="157.71902"
       y1="-384.23517"
       x2="221.71902"
       y2="-384.23517"
       gradientTransform="translate(127.86819,-7.3964844e-6)" /><linearGradient
       id="linearGradient4328-3-4-4"><stop
         style="stop-color:#000000;stop-opacity:1;"
         offset="0"
         id="stop4330-7-2-1" /><stop
         id="stop4358-0-4-7"
         offset="0.5"
         style="stop-color:#00baff;stop-opacity:0.55686277;" /><stop
         style="stop-color:#68ffff;stop-opacity:0.32941177;"
         offset="0.75"
         id="stop4360-0-1-9" /><stop
         style="stop-color:#ffffff;stop-opacity:0;"
         offset="1"
         id="stop4332-6-8-3" /></linearGradient><linearGradient
       id="linearGradient4328-0-5-7-2"><stop
         style="stop-color:#000000;stop-opacity:1;"
         offset="0"
         id="stop4330-0-1-7-4" /><stop
         id="stop4358-5-0-8-9"
         offset="0.5"
         style="stop-color:#00baff;stop-opacity:0.55686277;" /><stop
         style="stop-color:#68ffff;stop-opacity:0.32941177;"
         offset="0.75"
         id="stop4360-3-7-5-5" /><stop
         style="stop-color:#ffffff;stop-opacity:0;"
         offset="1"
         id="stop4332-5-9-7-9" /></linearGradient><marker
       inkscape:stockid="Arrow1Mend"
       orient="auto"
       refY="0"
       refX="0"
       id="Arrow1Mend-1"
       style="overflow:visible"><path
         id="path4795-7"
         d="M 0,0 5,-5 -12.5,0 5,5 0,0 z"
         style="fill-rule:evenodd;stroke:#000000;stroke-width:1pt"
         transform="matrix(-0.4,0,0,-0.4,-4,0)"
         inkscape:connector-curvature="0" /></marker><marker
       inkscape:stockid="Arrow1Mend"
       orient="auto"
       refY="0"
       refX="0"
       id="Arrow1Mend-4"
       style="overflow:visible"><path
         id="path4795-6"
         d="M 0,0 5,-5 -12.5,0 5,5 0,0 z"
         style="fill-rule:evenodd;stroke:#000000;stroke-width:1pt"
         transform="matrix(-0.4,0,0,-0.4,-4,0)"
         inkscape:connector-curvature="0" /></marker><marker
       inkscape:stockid="Arrow1Mend"
       orient="auto"
       refY="0"
       refX="0"
       id="Arrow1Mend-5"
       style="overflow:visible"><path
         id="path4795-3"
         d="M 0,0 5,-5 -12.5,0 5,5 0,0 z"
         style="fill-rule:evenodd;stroke:#000000;stroke-width:1pt"
         transform="matrix(-0.4,0,0,-0.4,-4,0)"
         inkscape:connector-curvature="0" /></marker><marker
       inkscape:stockid="Arrow2Mend"
       orient="auto"
       refY="0"
       refX="0"
       id="Arrow2Mend-9-1"
       style="overflow:visible"><path
         id="path4398-0-1"
         style="fill-rule:evenodd;stroke-width:0.625;stroke-linejoin:round"
         d="M 8.7185878,4.0337352 -2.2072895,0.01601326 8.7185884,-4.0017078 c -1.7454984,2.3720609 -1.7354408,5.6174519 -6e-7,8.035443 z"
         transform="scale(-0.6,-0.6)"
         inkscape:connector-curvature="0" /></marker><marker
       inkscape:stockid="Arrow2Mend"
       orient="auto"
       refY="0"
       refX="0"
       id="Arrow2Mend-9-9"
       style="overflow:visible"><path
         id="path4398-0-6"
         style="fill-rule:evenodd;stroke-width:0.625;stroke-linejoin:round"
         d="M 8.7185878,4.0337352 -2.2072895,0.01601326 8.7185884,-4.0017078 c -1.7454984,2.3720609 -1.7354408,5.6174519 -6e-7,8.035443 z"
         transform="scale(-0.6,-0.6)"
         inkscape:connector-curvature="0" /></marker><marker
       inkscape:stockid="Arrow2Mend"
       orient="auto"
       refY="0"
       refX="0"
       id="Arrow2Mend-9-7"
       style="overflow:visible"><path
         id="path4398-0-8"
         style="fill-rule:evenodd;stroke-width:0.625;stroke-linejoin:round"
         d="M 8.7185878,4.0337352 -2.2072895,0.01601326 8.7185884,-4.0017078 c -1.7454984,2.3720609 -1.7354408,5.6174519 -6e-7,8.035443 z"
         transform="scale(-0.6,-0.6)"
         inkscape:connector-curvature="0" /></marker><marker
       inkscape:stockid="Arrow2Mend"
       orient="auto"
       refY="0"
       refX="0"
       id="Arrow2Mend-9-95"
       style="overflow:visible"><path
         id="path4398-0-4"
         style="fill-rule:evenodd;stroke-width:0.625;stroke-linejoin:round"
         d="M 8.7185878,4.0337352 -2.2072895,0.01601326 8.7185884,-4.0017078 c -1.7454984,2.3720609 -1.7354408,5.6174519 -6e-7,8.035443 z"
         transform="scale(-0.6,-0.6)"
         inkscape:connector-curvature="0" /></marker><clipPath
       clipPathUnits="userSpaceOnUse"
       id="clipPath4746"><path
         inkscape:connector-curvature="0"
         d="m 8.39844,5.59766 3821.59996,0 0,2714.40004 -3821.59996,0 0,-2714.40004 z"
         id="path4748" /></clipPath><clipPath
       clipPathUnits="userSpaceOnUse"
       id="clipPath3742"><path
         inkscape:connector-curvature="0"
         d="m 1.19922,8.39844 4408.79998,0 0,3251.59996 -4408.79998,0 0,-3251.59996 z"
         id="path3744" /></clipPath><clipPath
       clipPathUnits="userSpaceOnUse"
       id="clipPath4002"><path
         inkscape:connector-curvature="0"
         d="m 8.39844,5.59766 3741.59996,0 0,2714.40004 -3741.59996,0 0,-2714.40004 z"
         id="path4004" /></clipPath><clipPath
       clipPathUnits="userSpaceOnUse"
       id="clipPath5939"><path
         inkscape:connector-curvature="0"
         d="m 2.80078,0.398438 4247.20002,0 0,1718.399962 -4247.20002,0 0,-1718.399962 z"
         id="path5941" /></clipPath><clipPath
       clipPathUnits="userSpaceOnUse"
       id="clipPath6179"><path
         inkscape:connector-curvature="0"
         d="m 0,4.79688 2748.4,0 0,1175.20002 -2748.4,0 L 0,4.79688 z"
         id="path6181" /></clipPath><clipPath
       clipPathUnits="userSpaceOnUse"
       id="clipPath7790"><path
         inkscape:connector-curvature="0"
         d="m 0,4.79688 2748.4,0 0,1175.20002 -2748.4,0 L 0,4.79688 z"
         id="path7792" /></clipPath><clipPath
       clipPathUnits="userSpaceOnUse"
       id="clipPath7910"><path
         inkscape:connector-curvature="0"
         d="m 2.39844,7.99609 3067.59996,0 0,1112.00001 -3067.59996,0 0,-1112.00001 z"
         id="path7912" /></clipPath><clipPath
       clipPathUnits="userSpaceOnUse"
       id="clipPath8050"><path
         inkscape:connector-curvature="0"
         d="m 8,6.39844 5512,0 0,1113.59996 -5512,0 L 8,6.39844 z"
         id="path8052" /></clipPath><clipPath
       clipPathUnits="userSpaceOnUse"
       id="clipPath8430"><path
         inkscape:connector-curvature="0"
         d="m 7.19922,1.19922 3212.79998,0 0,1148.79998 -3212.79998,0 0,-1148.79998 z"
         id="path8432" /></clipPath><clipPath
       clipPathUnits="userSpaceOnUse"
       id="clipPath8580"><path
         inkscape:connector-curvature="0"
         d="m 6.39844,0 5813.59996,0 0,1158.8 -5813.59996,0 0,-1158.8 z"
         id="path8582" /></clipPath><clipPath
       clipPathUnits="userSpaceOnUse"
       id="clipPath9000"><path
         inkscape:connector-curvature="0"
         d="m 8.80078,3.99609 3281.20002,0 0,1166.00001 -3281.20002,0 0,-1166.00001 z"
         id="path9002" /></clipPath><clipPath
       clipPathUnits="userSpaceOnUse"
       id="clipPath9150"><path
         inkscape:connector-curvature="0"
         d="m 10.3984,0 5889.6,0 0,1160 -5889.6,0 0,-1160 z"
         id="path9152" /></clipPath><clipPath
       clipPathUnits="userSpaceOnUse"
       id="clipPath9575"><rect
         transform="scale(1,-1)"
         y="-1180.0006"
         x="0.0012391418"
         height="1002.8923"
         width="2144.824"
         id="rect9577" /></clipPath><clipPath
       clipPathUnits="userSpaceOnUse"
       id="clipPath9581"><rect
         id="rect9583"
         width="3281.2"
         height="981.38458"
         x="8.8032475"
         y="-1169.9972"
         transform="scale(1,-1)" /></clipPath><clipPath
       clipPathUnits="userSpaceOnUse"
       id="clipPath9598"><rect
         transform="scale(1,-1)"
         y="-1155.3845"
         x="10.398396"
         height="1156.9231"
         width="5277.1313"
         id="rect9600" /></clipPath><clipPath
       clipPathUnits="userSpaceOnUse"
       id="clipPath3247"><path
         inkscape:connector-curvature="0"
         d="m 5.59766,4.39844 4394.40004,0 0,3005.59996 -4394.40004,0 0,-3005.59996 z"
         id="path3249" /></clipPath><clipPath
       clipPathUnits="userSpaceOnUse"
       id="clipPath3533"><path
         inkscape:connector-curvature="0"
         d="m 5.19922,0 3624.79998,0 0,2070 -3624.79998,0 0,-2070 z"
         id="path3535" /></clipPath><clipPath
       clipPathUnits="userSpaceOnUse"
       id="clipPath10391"><path
         inkscape:connector-curvature="0"
         d="m 3.19922,6.39844 2406.79998,0 0,1533.59996 -2406.79998,0 0,-1533.59996 z"
         id="path10393" /></clipPath><clipPath
       clipPathUnits="userSpaceOnUse"
       id="clipPath10545"><path
         inkscape:connector-curvature="0"
         d="m 2.39844,8.79688 2767.59996,0 0,2591.20002 -2767.59996,0 0,-2591.20002 z"
         id="path10547" /></clipPath><clipPath
       clipPathUnits="userSpaceOnUse"
       id="clipPath11049"><path
         inkscape:connector-curvature="0"
         d="m 2.39844,8.79688 2767.59996,0 0,2591.20002 -2767.59996,0 0,-2591.20002 z"
         id="path11051" /></clipPath><clipPath
       clipPathUnits="userSpaceOnUse"
       id="clipPath11241"><path
         inkscape:connector-curvature="0"
         d="m 2.39844,8.79688 2767.59996,0 0,2591.20002 -2767.59996,0 0,-2591.20002 z"
         id="path11243" /></clipPath><marker
       inkscape:stockid="Arrow2Lend"
       orient="auto"
       refY="0"
       refX="0"
       id="Arrow2Lend-60"
       style="overflow:visible"><path
         id="path4807-7"
         style="fill-rule:evenodd;stroke-width:0.625;stroke-linejoin:round"
         d="M 8.7185878,4.0337352 -2.2072895,0.01601326 8.7185884,-4.0017078 c -1.7454984,2.3720609 -1.7354408,5.6174519 -6e-7,8.035443 z"
         transform="matrix(-1.1,0,0,-1.1,-1.1,0)"
         inkscape:connector-curvature="0" /></marker><clipPath
       clipPathUnits="userSpaceOnUse"
       id="clipPath11789"><path
         inkscape:connector-curvature="0"
         d="m 6.80078,7.99609 3103.20002,0 0,1732.00001 -3103.20002,0 0,-1732.00001 z"
         id="path11791" /></clipPath><clipPath
       clipPathUnits="userSpaceOnUse"
       id="clipPath11909"><path
         inkscape:connector-curvature="0"
         d="m 2.79688,0 2657.20002,0 0,2860 -2657.20002,0 0,-2860 z"
         id="path11911" /></clipPath><clipPath
       clipPathUnits="userSpaceOnUse"
       id="clipPath12049"><path
         inkscape:connector-curvature="0"
         d="m 2.79688,0 2657.20002,0 0,1920 -2657.20002,0 0,-1920 z"
         id="path12051" /></clipPath><clipPath
       clipPathUnits="userSpaceOnUse"
       id="clipPath12159"><path
         inkscape:connector-curvature="0"
         d="m 2.79688,0 2657.20002,0 0,2020 -2657.20002,0 0,-2020 z"
         id="path12161" /></clipPath><clipPath
       clipPathUnits="userSpaceOnUse"
       id="clipPath12269"><path
         inkscape:connector-curvature="0"
         d="m 2.79688,8.39844 2657.20002,0 0,2091.59996 -2657.20002,0 0,-2091.59996 z"
         id="path12271" /></clipPath><clipPath
       clipPathUnits="userSpaceOnUse"
       id="clipPath12389"><path
         inkscape:connector-curvature="0"
         d="m 2.79688,0.398438 2657.20002,0 0,2069.599962 -2657.20002,0 0,-2069.599962 z"
         id="path12391" /></clipPath><marker
       inkscape:stockid="Arrow1Mstart"
       orient="auto"
       refY="0"
       refX="0"
       id="Arrow1Mstart-0"
       style="overflow:visible"><path
         id="path4792-7"
         d="M 0,0 5,-5 -12.5,0 5,5 0,0 z"
         style="fill-rule:evenodd;stroke:#000000;stroke-width:1pt"
         transform="matrix(0.4,0,0,0.4,4,0)"
         inkscape:connector-curvature="0" /></marker><marker
       inkscape:stockid="Arrow1Mstart"
       orient="auto"
       refY="0"
       refX="0"
       id="marker12536"
       style="overflow:visible"><path
         id="path12538"
         d="M 0,0 5,-5 -12.5,0 5,5 0,0 z"
         style="fill-rule:evenodd;stroke:#000000;stroke-width:1pt"
         transform="matrix(0.4,0,0,0.4,4,0)"
         inkscape:connector-curvature="0" /></marker><linearGradient
       inkscape:collect="always"
       xlink:href="#linearGradient4328-0"
       id="linearGradient3603"
       gradientUnits="userSpaceOnUse"
       gradientTransform="matrix(1,0,0,0.25703109,148.6496,-319.02358)"
       x1="107.35092"
       y1="-384.2352"
       x2="171.35092"
       y2="-384.2352" /></defs><sodipodi:namedview
     pagecolor="#ffffff"
     bordercolor="#666666"
     borderopacity="1"
     objecttolerance="10"
     gridtolerance="10"
     guidetolerance="10"
     inkscape:pageopacity="0"
     inkscape:pageshadow="2"
     inkscape:window-width="1920"
     inkscape:window-height="979"
     id="namedview3171"
     showgrid="false"
     showguides="true"
     inkscape:guide-bbox="true"
     fit-margin-top="0"
     fit-margin-left="1"
     fit-margin-right="1"
     fit-margin-bottom="0"
     inkscape:zoom="1.21"
     inkscape:cx="178.75607"
     inkscape:cy="-97.899907"
     inkscape:window-x="0"
     inkscape:window-y="24"
     inkscape:window-maximized="1"
     inkscape:current-layer="g3177"
     showborder="true"><sodipodi:guide
       orientation="1,0"
       position="-106.47221,56.583199"
       id="guide3121" /><sodipodi:guide
       orientation="0,1"
       position="-241.60735,28.204821"
       id="guide3151" /><sodipodi:guide
       orientation="1,0"
       position="-5.1208637,67.394009"
       id="guide4189" /></sodipodi:namedview><g
     id="g3177"
     inkscape:groupmode="layer"
     inkscape:label="ink_ext_XXXXXX"
     transform="matrix(1.25,0,0,-1.25,-196.42513,542.74391)"><rect
   style="fill:url(#linearGradient3603);fill-opacity:1;stroke:#000000;stroke-width:0.24015936;stroke-opacity:1"
   id="rect3131-4-1"
   width="63.526295"
   height="16.328234"
   x="256.23718"
   y="-425.94827"
   transform="scale(1,-1)" /><text
   xml:space="preserve"
   style="font-size:11.19999981px;font-style:normal;font-variant:normal;font-weight:normal;font-stretch:normal;text-align:center;line-height:125%;letter-spacing:0px;word-spacing:0px;writing-mode:lr-tb;text-anchor:middle;fill:#000000;fill-opacity:1;stroke:none;font-family:Sans;-inkscape-font-specification:Sans"
   x="204.33151"
   y="-424.44986"
   id="text4076"
   sodipodi:linespacing="125%"
   transform="scale(1,-1)"><tspan
     sodipodi:role="line"
     id="tspan4078"
     x="204.33151"
     y="-424.44986"
     style="font-size:11.19999981px;font-style:normal;font-variant:normal;font-weight:normal;font-stretch:normal;text-align:center;line-height:125%;writing-mode:lr-tb;text-anchor:middle;font-family:Sans;-inkscape-font-specification:Sans">chemoattractant</tspan><tspan
     sodipodi:role="line"
     x="204.33151"
     y="-410.44986"
     style="font-size:11.19999981px;font-style:normal;font-variant:normal;font-weight:normal;font-stretch:normal;text-align:center;line-height:125%;writing-mode:lr-tb;text-anchor:middle;font-family:Sans;-inkscape-font-specification:Sans"
     id="tspan3605">concentration</tspan></text>

<text
   xml:space="preserve"
   style="font-size:9.60000038px;font-style:normal;font-variant:normal;font-weight:normal;font-stretch:normal;text-align:start;line-height:125%;letter-spacing:0px;word-spacing:0px;writing-mode:lr-tb;text-anchor:start;fill:#000000;fill-opacity:1;stroke:none;font-family:Sans;-inkscape-font-specification:Sans"
   x="257.11557"
   y="-427.07013"
   id="text4080"
   sodipodi:linespacing="125%"
   transform="scale(1,-1)"><tspan
     sodipodi:role="line"
     id="tspan4082"
     x="257.11557"
     y="-427.07013">0</tspan></text>

<text
   xml:space="preserve"
   style="font-size:9.60000038px;font-style:normal;font-variant:normal;font-weight:normal;font-stretch:normal;text-align:start;line-height:125%;letter-spacing:0px;word-spacing:0px;writing-mode:lr-tb;text-anchor:start;fill:#000000;fill-opacity:1;stroke:none;font-family:Sans;-inkscape-font-specification:Sans"
   x="314.76404"
   y="-426.54117"
   id="text4080-7"
   sodipodi:linespacing="125%"
   transform="scale(1,-1)"><tspan
     sodipodi:role="line"
     id="tspan4082-1"
     x="314.76404"
     y="-426.54117">1</tspan></text>

<g
   id="g13193"
   transform="translate(-191.82703,479.22163)"><path
   style="fill:#7112a0;fill-opacity:1"
   transform="matrix(0.64258068,0,0,-0.64258068,373.88511,-162.68097)"
   d="m 116.86747,-123.44879 c 0,5.15687 -4.18047,9.33735 -9.33735,9.33735 -5.15687,0 -9.337348,-4.18048 -9.337348,-9.33735 0,-5.15688 4.180478,-9.33735 9.337348,-9.33735 5.15688,0 9.33735,4.18047 9.33735,9.33735 z"
   sodipodi:ry="9.3373489"
   sodipodi:rx="9.3373489"
   sodipodi:cy="-123.44879"
   sodipodi:cx="107.53012"
   id="path3791-8-2"
   sodipodi:type="arc" /><text
   transform="scale(1,-1)"
   id="text3097-8-7"
   y="87.067055"
   x="455.39487"
   xml:space="preserve"
   style="font-size:12px"><tspan
     style="font-size:11.19999981px"
     y="87.067055"
     x="455.39487"
     id="tspan3099-5-8"
     sodipodi:role="line">Follower</tspan></text>

</g><g
   id="g13198"
   transform="translate(-159.82703,479.22163)"><path
   style="fill:#fb6504;fill-opacity:1"
   transform="matrix(0.64258068,0,0,-0.64258068,270.2333,-163.19286)"
   d="m 116.86747,-123.44879 c 0,5.15687 -4.18047,9.33735 -9.33735,9.33735 -5.15687,0 -9.337348,-4.18048 -9.337348,-9.33735 0,-5.15688 4.180478,-9.33735 9.337348,-9.33735 5.15688,0 9.33735,4.18047 9.33735,9.33735 z"
   sodipodi:ry="9.3373489"
   sodipodi:rx="9.3373489"
   sodipodi:cy="-123.44879"
   sodipodi:cx="107.53012"
   id="path3791-6"
   sodipodi:type="arc" /><text
   transform="scale(1,-1)"
   id="text3097-2"
   y="87.067055"
   x="351.53857"
   xml:space="preserve"><tspan
     style="font-size:11.19999981px"
     y="87.067055"
     x="351.53857"
     id="tspan3099-55"
     sodipodi:role="line">Leader</tspan></text>

</g></g></svg>